<?xml version="1.0" encoding="utf-8"?>
<!-- Generator: Adobe Illustrator 18.1.1, SVG Export Plug-In . SVG Version: 6.00 Build 0)  -->
<svg version="1.1" id="Layer_1" xmlns="http://www.w3.org/2000/svg" xmlns:xlink="http://www.w3.org/1999/xlink" x="0px" y="0px"
	 viewBox="0 0 30 30" enable-background="new 0 0 30 30" xml:space="preserve">
<g>
	<circle fill="#77CCF1" cx="15" cy="15" r="15"/>
	<path fill="#FFFFFF" d="M8,20.3c1.8,0.2,3.4-0.3,4.8-1.4c-1.5-0.1-2.5-0.9-3.1-2.3c0.5,0.1,0.9,0.1,1.4-0.1
		c-0.7-0.2-1.4-0.6-1.8-1.2c-0.5-0.6-0.7-1.3-0.7-2.1c0.5,0.2,0.9,0.4,1.5,0.4c-0.7-0.5-1.2-1.2-1.4-2C8.5,10.8,8.6,10,9,9.3
		c1.8,2.1,4.1,3.3,6.8,3.5c0-0.3-0.1-0.5-0.1-0.8c0-1.7,1.2-3.1,2.9-3.3c1.1-0.1,2,0.2,2.7,0.9c0.1,0.1,0.1,0.1,0.2,0.1
		c0.7-0.1,1.3-0.4,1.9-0.7c0,0,0,0,0.1,0c-0.3,0.8-0.7,1.4-1.4,1.8c0.2,0,0.4-0.1,0.6-0.1c0.2,0,0.4-0.1,0.6-0.2
		c0.2-0.1,0.4-0.1,0.6-0.2c-0.1,0.1-0.2,0.2-0.3,0.4c-0.4,0.5-0.8,0.9-1.3,1.3c-0.1,0.1-0.1,0.1-0.1,0.2c0,1.4-0.2,2.7-0.8,4
		c-0.8,2-2.2,3.5-4.1,4.6c-1.1,0.6-2.3,1-3.6,1.1c-1.5,0.2-3,0-4.4-0.5C9.1,21,8.6,20.7,8,20.3C8,20.4,8,20.4,8,20.3
		C8,20.4,8,20.3,8,20.3z"/>
</g>
</svg>
