<?xml version="1.0" encoding="utf-8"?>
<!-- Generator: Adobe Illustrator 18.1.1, SVG Export Plug-In . SVG Version: 6.00 Build 0)  -->
<svg version="1.1" id="Layer_1" xmlns="http://www.w3.org/2000/svg" xmlns:xlink="http://www.w3.org/1999/xlink" x="0px" y="0px"
	 viewBox="0 0 30 30" enable-background="new 0 0 30 30" xml:space="preserve">
<circle fill="#7CC576" cx="15" cy="15" r="15"/>
<g>
	<path fill="#FFFFFF" d="M18.4,21.8c-1.3,0.6-2.4,0.8-4,0.8c-3.6,0-6.8-2.6-6.8-6.8c0-4.4,3.2-8.3,8.1-8.3c3.8,0,6.5,2.6,6.5,6.3
		c0,3.2-1.8,5.2-4.1,5.2c-1,0-1.8-0.5-1.9-1.7h0c-0.7,1.1-1.6,1.7-2.8,1.7c-1.4,0-2.4-1-2.4-2.8c0-2.6,1.9-5,5.1-5
		c1,0,2,0.2,2.6,0.5l-0.6,4c-0.2,1.3-0.1,1.9,0.5,1.9c0.9,0,2.1-1.2,2.1-3.7c0-2.8-1.8-5-5.2-5c-3.3,0-6.2,2.6-6.2,6.7
		c0,3.6,2.3,5.7,5.5,5.7c1.1,0,2.3-0.2,3.1-0.7L18.4,21.8z M16.5,12.8c-0.2,0-0.4-0.1-0.7-0.1c-1.4,0-2.6,1.4-2.6,3.1
		c0,0.8,0.4,1.3,1.1,1.3c0.8,0,1.6-1,1.8-2.3L16.5,12.8z"/>
</g>
</svg>
