<?xml version="1.0" encoding="utf-8"?>
<!-- Generator: Adobe Illustrator 18.1.1, SVG Export Plug-In . SVG Version: 6.00 Build 0)  -->
<svg version="1.1" id="Layer_1" xmlns="http://www.w3.org/2000/svg" xmlns:xlink="http://www.w3.org/1999/xlink" x="0px" y="0px"
	 viewBox="0 0 30 30" enable-background="new 0 0 30 30" xml:space="preserve">
<g>
	<circle fill="#7CC576" cx="15" cy="15" r="15"/>
	<path fill="#FFFFFF" d="M18,22.9c-1,0-1.9-0.3-2.8-0.7c-1.7-0.8-3.1-2.1-4.3-3.5c-1.2-1.3-2.2-2.7-2.8-4.4
		c-0.6-1.6-0.6-3.2,0.1-4.8C8.5,8.9,8.9,8.4,9.4,8c0.3-0.2,0.5-0.4,0.7-0.6c0.5-0.4,1-0.4,1.5,0c0.2,0.2,0.4,0.3,0.5,0.5
		c0.4,0.5,0.7,1,1,1.6c0.2,0.3,0.3,0.6,0.3,1c0.1,0.5,0,0.9-0.4,1.3c-0.3,0.3-0.6,0.5-1,0.8c-0.6,0.5-0.8,1-0.5,1.8
		c0.1,0.4,0.3,0.7,0.5,1c0.7,1.1,1.6,2.1,2.6,2.9c0.2,0.2,0.5,0.3,0.7,0.5c0.6,0.3,1.2,0.2,1.6-0.2c0.2-0.2,0.5-0.5,0.7-0.7
		c0.6-0.6,1.3-0.7,2-0.3c0.9,0.5,1.7,1.2,2.3,2c0.5,0.6,0.4,1.1-0.1,1.6c-0.3,0.3-0.6,0.6-1,0.9c-0.7,0.6-1.5,0.8-2.3,0.9
		C18.4,22.9,18.1,22.9,18,22.9z"/>
</g>
</svg>
