<?xml version="1.0" encoding="utf-8"?>
<!-- Generator: Adobe Illustrator 18.1.1, SVG Export Plug-In . SVG Version: 6.00 Build 0)  -->
<svg version="1.1" id="Layer_1" xmlns="http://www.w3.org/2000/svg" xmlns:xlink="http://www.w3.org/1999/xlink" x="0px" y="0px"
	 viewBox="0 0 30 30" enable-background="new 0 0 30 30" xml:space="preserve">
<g>
	<circle fill="#537CBC" cx="15" cy="15" r="15"/>
	<path fill="#FFFFFF" d="M13,19.8c0-1.2,0-2.3,0-3.5c0-0.5-0.2-0.6-0.6-0.6c-0.6,0-1.1,0-1.7,0c-0.3,0-0.5-0.1-0.5-0.5
		c0-0.7,0-1.4,0-2.1c0-0.3,0.1-0.5,0.5-0.5c0.6,0,1.1,0,1.7,0c0.6,0,0.6,0,0.6-0.6c0-0.8,0-1.7,0.1-2.5c0.3-2.2,1.6-3.3,3.8-3.4
		c0.7,0,1.5,0,2.2,0.1c0.3,0,0.4,0.2,0.4,0.4c0,0.7,0,1.3,0,2C19.5,8.8,19.3,9,19,9c-0.5,0-0.9,0-1.4,0c-1,0-1.4,0.4-1.4,1.4
		c0,0.6,0,1.2,0,1.8c0,0.3,0.1,0.5,0.5,0.4c0.7,0,1.4,0,2.1,0c0.5,0,0.5,0.1,0.5,0.6c-0.1,0.7-0.2,1.3-0.2,2c0,0.4-0.2,0.6-0.7,0.6
		c-0.5,0-1,0-1.5,0c-0.7,0-0.7,0-0.7,0.7c0,2.2,0,4.5,0,6.7c0,0.8,0,0.8-0.8,0.8c-0.6,0-1.2,0-1.8,0c-0.4,0-0.6-0.1-0.6-0.5
		C13,22.2,13,21,13,19.8z"/>
</g>
</svg>
